<?xml version="1.0" ?><svg xmlns="http://www.w3.org/2000/svg" xmlns:xlink="http://www.w3.org/1999/xlink" version="1.1" viewBox="0 0 279.04 239.249" style="enable-background:new 0 0 279.04 239.249;" xml:space="preserve"><g id="crane_with_electromagnet_x2C__truck_x2C__Construction_vehicle_x2C__Vehicle"><g><path d="M42.248,106.59c0.935,0,1.868-0.373,2.557-1.109l6.508-6.961c1.32-1.412,1.246-3.627-0.167-4.947    c-1.411-1.319-3.626-1.245-4.947,0.166l-6.508,6.961c-1.32,1.412-1.246,3.627,0.167,4.947    C40.533,106.277,41.391,106.59,42.248,106.59z"/><path d="M56.08,96.632l-16.01,16.01c-1.367,1.366-1.367,3.583,0,4.949c0.684,0.684,1.579,1.025,2.475,1.025    c0.896,0,1.792-0.342,2.475-1.025l16.01-16.01c1.367-1.366,1.367-3.583,0-4.949C59.663,95.265,57.446,95.264,56.08,96.632z"/><path d="M73.376,232.249h-12c-1.933,0-3.5,1.567-3.5,3.5s1.567,3.5,3.5,3.5h12c1.933,0,3.5-1.567,3.5-3.5    S75.309,232.249,73.376,232.249z"/><path d="M60.079,180.569h-12c-1.933,0-3.5,1.567-3.5,3.5c0,1.933,1.567,3.5,3.5,3.5h12c1.933,0,3.5-1.567,3.5-3.5    C63.579,182.137,62.012,180.569,60.079,180.569z"/><path d="M97.376,232.249h-12c-1.933,0-3.5,1.567-3.5,3.5s1.567,3.5,3.5,3.5h12c1.933,0,3.5-1.567,3.5-3.5    S99.309,232.249,97.376,232.249z"/><path d="M84.079,187.569c1.933,0,3.5-1.567,3.5-3.5c0-1.933-1.567-3.5-3.5-3.5h-12c-1.933,0-3.5,1.567-3.5,3.5    c0,1.933,1.567,3.5,3.5,3.5H84.079z"/><path d="M108.079,187.569c1.933,0,3.5-1.567,3.5-3.5c0-1.933-1.567-3.5-3.5-3.5h-12c-1.933,0-3.5,1.567-3.5,3.5    c0,1.933,1.567,3.5,3.5,3.5H108.079z"/><path d="M132.079,187.569c1.933,0,3.5-1.567,3.5-3.5c0-1.933-1.567-3.5-3.5-3.5h-12c-1.933,0-3.5,1.567-3.5,3.5    c0,1.933,1.567,3.5,3.5,3.5H132.079z"/><path d="M49.376,232.249h-12c-1.933,0-3.5,1.567-3.5,3.5s1.567,3.5,3.5,3.5h12c1.933,0,3.5-1.567,3.5-3.5    S51.309,232.249,49.376,232.249z"/><path d="M25.922,231.991c-3.409-0.521-6.7-1.857-9.519-3.86c-1.575-1.12-3.76-0.751-4.881,0.824    c-1.12,1.575-0.751,3.761,0.824,4.881c3.705,2.634,8.033,4.39,12.517,5.075c0.18,0.027,0.357,0.04,0.534,0.04    c1.699,0,3.19-1.239,3.456-2.971C29.145,234.069,27.833,232.283,25.922,231.991z"/><path d="M6.999,210.472c-0.048-1.932-1.622-3.464-3.585-3.413c-1.933,0.048-3.46,1.652-3.413,3.585    c0.113,4.612,1.268,9.006,3.43,13.06c0.63,1.181,1.84,1.854,3.091,1.854c0.556,0,1.12-0.133,1.644-0.413    c1.706-0.909,2.351-3.03,1.44-4.735C7.963,217.327,7.086,213.983,6.999,210.472z"/><path d="M4.449,202.088c0.482,0.227,0.988,0.334,1.487,0.334c1.314,0,2.573-0.743,3.169-2.011c1.469-3.122,3.682-5.905,6.4-8.05    c1.518-1.197,1.778-3.398,0.581-4.916c-1.197-1.516-3.397-1.777-4.916-0.58c-3.567,2.813-6.471,6.467-8.399,10.565    C1.949,199.179,2.699,201.264,4.449,202.088z"/><path d="M121.376,232.249h-12c-1.933,0-3.5,1.567-3.5,3.5s1.567,3.5,3.5,3.5h12c1.933,0,3.5-1.567,3.5-3.5    S123.309,232.249,121.376,232.249z"/><path d="M175.276,200.693c0.584,0,1.177-0.147,1.722-0.456c1.682-0.952,2.272-3.089,1.32-4.771    c-2.235-3.944-5.405-7.368-9.167-9.903c-1.603-1.081-3.779-0.657-4.858,0.946c-1.081,1.604-0.657,3.778,0.946,4.858    c2.869,1.933,5.285,4.543,6.988,7.55C172.872,200.054,174.057,200.693,175.276,200.693z"/><path d="M166.154,227.8c-2.771,2.076-6.028,3.493-9.418,4.099c-1.903,0.34-3.17,2.157-2.83,4.061    c0.302,1.695,1.778,2.886,3.441,2.886c0.204,0,0.411-0.019,0.619-0.056c4.461-0.796,8.743-2.659,12.384-5.386    c1.547-1.159,1.862-3.352,0.703-4.9C169.895,226.958,167.702,226.643,166.154,227.8z"/><path d="M145.376,232.249h-12c-1.933,0-3.5,1.567-3.5,3.5s1.567,3.5,3.5,3.5h12c1.933,0,3.5-1.567,3.5-3.5    S147.309,232.249,145.376,232.249z"/><path d="M178.407,205.114c-1.931,0.097-3.417,1.74-3.321,3.671c0.018,0.372,0.028,0.748,0.028,1.125    c0,3.519-0.794,6.884-2.358,10.003c-0.867,1.728-0.169,3.831,1.559,4.697c0.503,0.253,1.039,0.373,1.566,0.373    c1.282,0,2.517-0.707,3.131-1.932c2.058-4.102,3.102-8.523,3.102-13.142c0-0.494-0.012-0.985-0.037-1.475    C181.981,206.505,180.334,205.006,178.407,205.114z"/><path d="M40.303,195.699c-7.667,0-13.904,6.237-13.904,13.903c0,7.667,6.237,13.904,13.904,13.904    c7.667,0,13.904-6.237,13.904-13.904C54.207,201.936,47.969,195.699,40.303,195.699z M40.303,216.507    c-3.807,0-6.904-3.098-6.904-6.904c0-3.807,3.097-6.903,6.904-6.903c3.807,0,6.904,3.097,6.904,6.903    C47.207,213.409,44.109,216.507,40.303,216.507z"/><path d="M59.503,209.602c0,7.667,6.237,13.904,13.904,13.904c7.667,0,13.904-6.237,13.904-13.904    c0-7.666-6.237-13.903-13.904-13.903C65.74,195.699,59.503,201.936,59.503,209.602z M73.407,202.699    c3.807,0,6.904,3.097,6.904,6.903c0,3.807-3.097,6.904-6.904,6.904c-3.807,0-6.904-3.098-6.904-6.904    C66.503,205.796,69.6,202.699,73.407,202.699z"/><path d="M119.763,209.602c0-7.666-6.237-13.903-13.904-13.903c-7.667,0-13.904,6.237-13.904,13.903    c0,7.667,6.237,13.904,13.904,13.904C113.526,223.507,119.763,217.269,119.763,209.602z M105.859,216.507    c-3.807,0-6.904-3.098-6.904-6.904c0-3.807,3.097-6.903,6.904-6.903c3.807,0,6.904,3.097,6.904,6.903    C112.763,213.409,109.666,216.507,105.859,216.507z"/><path d="M138.963,195.699c-7.667,0-13.904,6.237-13.904,13.903c0,7.667,6.237,13.904,13.904,13.904    c7.667,0,13.904-6.237,13.904-13.904C152.868,201.936,146.63,195.699,138.963,195.699z M138.963,216.507    c-3.807,0-6.904-3.098-6.904-6.904c0-3.807,3.097-6.903,6.904-6.903c3.807,0,6.904,3.097,6.904,6.903    C145.868,213.409,142.771,216.507,138.963,216.507z"/><path d="M28.639,130.32h47.282V81.909H28.639V130.32z M35.639,88.909h33.282v34.411H35.639V88.909z"/><path d="M273.921,176.284c-1.033-0.619-2.785-1.661-14.321-2.158c-0.196-0.37-0.454-0.715-0.789-1.006L242.6,159.035    c2.105-2.52,3.486-5.998,3.486-10.379c0-5.823-1.724-10.271-5.124-13.221c-2.634-2.284-5.676-3.135-8.053-3.415v-6.31    c5.707-1.263,10.155-5.998,12.716-13.704c2.113-6.358,2.333-12.67,2.341-12.936c0.03-0.938-0.32-1.851-0.969-2.529    c-0.65-0.679-1.545-1.068-2.484-1.08l-2.514-0.032l1.799-63.9c3.539-5.731,6.775-17.544-3.342-26.985    c-12.93-12.07-28.349,2.832-36.633,10.838c-0.59,0.569-1.148,1.109-1.671,1.606c-0.802,0.761-73.401,73.919-82.163,115.319    l-22.133-1.005c1.436-26.045-0.834-63.655-0.858-64.049l-0.065-1.047l-0.629-0.839c-5.752-7.67-34.361-8.355-42.992-8.383    c-32.93-0.105-40.874,5.726-42.783,8.236l-0.7,0.921L8.645,167.968h13.218v13.972c-0.942,0.801-1.44,2.065-1.175,3.36    c0.34,1.656,1.798,2.798,3.425,2.798c0.233,0,0.47-0.023,0.707-0.072c1.474-0.303,2.992-0.456,4.512-0.456h6.747    c1.933,0,3.5-1.567,3.5-3.5c0-1.933-1.567-3.5-3.5-3.5h-6.747c-0.157,0-0.313,0.009-0.47,0.012v-12.613H94.79l0.314-3.153    c0.012-0.123,1.155-11.64,2.274-26.527l21.757,0.988c-0.023,1.114,0.007,2.2,0.116,3.243c0.648,6.201,3.527,10.915,8.56,14.012    c4.164,2.563,8.16,3.95,11.888,4.57v23.697h0.959c0.335,1.583,1.739,2.773,3.422,2.773h8.694c0.953,0,1.913,0.061,2.852,0.181    c0.151,0.02,0.3,0.028,0.448,0.028c1.735,0,3.242-1.29,3.467-3.057c0.245-1.918-1.111-3.67-3.028-3.915    c-1.233-0.157-2.491-0.237-3.739-0.237h-6.075v-19.155c3.74-0.291,7.042-1.263,9.729-2.4c7.623-3.227,13.403-8.984,16.036-12.934    c2.682-4.022,26.376-42.132,45.653-73.187l0.232,22.238l-3.576-0.045c-0.015,0-0.03,0-0.044,0c-0.93,0-1.822,0.37-2.479,1.029    c-0.667,0.67-1.036,1.581-1.021,2.526c0.004,0.262,0.125,6.485,2.139,12.847c2.964,9.365,7.987,12.948,12.543,14.1v9.891    c0,1.005,0.446,1.96,1.2,2.624c0.754,0.665,1.771,0.968,2.769,0.845c0.04-0.007,3.945-0.473,6.533,1.808    c1.775,1.564,2.675,4.222,2.675,7.9c0,2.484-0.708,4.412-1.785,5.775l-1.455-1.265c-1.31-1.14-3.257-1.145-4.573-0.016    l-2.507,2.149c-0.268-0.245-0.534-0.513-0.793-0.837c-1.696-2.123-2.592-5.433-2.592-9.571c0-1.933-1.567-3.5-3.5-3.5    c-1.933,0-3.5,1.567-3.5,3.5c0,5.743,1.426,10.563,4.123,13.94c0.295,0.369,0.606,0.713,0.925,1.043l-15.873,13.606    c-0.356,0.305-0.632,0.667-0.833,1.06c-10.474,0.337-18.019,0.672-18.139,0.677c-1.631,0.072-2.996,1.264-3.288,2.871    c-0.706,3.887-2.521,16.889,3.755,20.981c1.265,0.825,3.264,2.131,30.559,2.131c4.209,0,9.023-0.031,14.525-0.1    c19.864-0.248,39.391-0.889,39.586-0.896c1.403-0.046,2.643-0.927,3.149-2.236C277.509,196.315,282.862,181.643,273.921,176.284z     M90.648,134.384c-0.843,11.658-1.749,21.703-2.207,26.584H15.727l1.071-92.126c3.282-2.205,15.422-4.858,35.745-4.858    c0.247,0,0.497,0,0.746,0.001c20.9,0.067,33.607,2.865,36.798,5.033C90.494,76.28,92.305,111.452,90.648,134.384z     M166.639,142.197c-3.681,5.521-18.04,18.906-35.16,8.372c-3.128-1.925-4.851-4.797-5.267-8.778    c-3.274-31.353,70.187-109.682,80.761-119.728c0.537-0.51,1.109-1.062,1.714-1.647c7.116-6.875,14.45-13.308,20.804-13.308    c2.196,0,4.276,0.768,6.189,2.554c8.722,8.14,2.515,17.712,1.788,18.764l-0.116,0.175    C236.69,29.669,171.073,135.546,166.639,142.197z M225.003,62.032l-0.148,0.002c4.477-7.216,8.476-13.663,11.608-18.715    l-1.464,52.023l-9.65-0.122L225.003,62.032z M218.542,102.135l22.07,0.278c-0.805,5.805-3.324,16.651-10.899,16.651    c-0.069,0-0.141-0.001-0.211-0.003C221.706,118.856,219.281,107.971,218.542,102.135z M229.907,163.541    c0.861,0.187,1.745,0.292,2.65,0.292c1.367,0,2.75-0.245,4.086-0.7l12.361,10.739c-5.621-0.054-12.545-0.024-21.138,0.13    c-3.53,0.063-7.04,0.142-10.43,0.229L229.907,163.541z M271.039,193.29c-30.271,0.956-72.83,1.498-78.291-0.184    c-1.031-0.997-1.56-5.664-0.964-11.022c35.653-1.521,74.112-1.847,78.538,0.203C272.855,183.805,272.1,189.467,271.039,193.29z"/><path d="M145.591,116.375c-0.39-1.133-1.331-1.988-2.497-2.267c-1.165-0.277-2.392,0.059-3.251,0.893    c-0.453,0.44-11.045,10.911-7.431,24.052c2.152,7.828,7.568,11.55,12.348,11.55c0.527,0,1.046-0.045,1.552-0.135    c4.023-0.715,6.586-4.168,6.233-8.397C151.952,134.939,145.851,117.13,145.591,116.375z M145.088,143.575    c-1.607,0.296-4.598-1.546-5.927-6.378c-1.275-4.638,0.17-8.986,1.907-12.148c1.92,6.091,4.198,13.969,4.501,17.602    C145.639,143.477,145.396,143.52,145.088,143.575z"/><path d="M151.598,105.071c-1.196-0.526-2.584-0.344-3.603,0.474c-1.018,0.818-1.497,2.135-1.241,3.416    c3.384,16.917,6.771,26.524,10.068,28.553c0.901,0.555,1.888,0.833,2.886,0.833c0.896,0,1.801-0.225,2.659-0.675    c4.671-2.451,7.448-11.904,7.69-16.507C170.415,114.397,158.646,108.176,151.598,105.071z M159.966,130.477    c-1.351-2.796-3.198-9.107-4.781-15.758c4.198,2.407,7.444,4.886,7.877,6.198C162.853,124.257,161.243,128.503,159.966,130.477z"/><path d="M172.697,76.846c-0.39-1.133-1.332-1.988-2.497-2.267c-1.164-0.278-2.391,0.059-3.251,0.893    c-0.453,0.44-11.045,10.911-7.431,24.052c2.152,7.828,7.568,11.55,12.348,11.55c0.527,0,1.046-0.045,1.552-0.135    c4.022-0.715,6.585-4.168,6.233-8.397C179.058,95.41,172.957,77.6,172.697,76.846z M172.194,104.046    c-1.611,0.295-4.598-1.546-5.927-6.378c-1.275-4.638,0.17-8.986,1.907-12.148c1.92,6.091,4.198,13.969,4.501,17.602    C172.745,103.948,172.502,103.991,172.194,104.046z"/><path d="M178.704,65.542c-1.196-0.526-2.584-0.344-3.602,0.474c-1.019,0.818-1.497,2.135-1.241,3.416    c3.383,16.917,6.771,26.524,10.068,28.553c0.901,0.555,1.888,0.833,2.886,0.833c0.896,0,1.801-0.225,2.659-0.675    c4.671-2.451,7.448-11.904,7.69-16.508C197.521,74.868,185.752,68.647,178.704,65.542z M187.072,90.949    c-1.351-2.796-3.197-9.106-4.78-15.755c4.199,2.409,7.444,4.886,7.876,6.194C189.959,84.728,188.349,88.974,187.072,90.949z"/><path d="M202.655,39.13c-0.4-1.099-1.322-1.925-2.458-2.202c-1.134-0.277-2.334,0.029-3.197,0.819    c-0.458,0.42-11.161,10.416-7.489,23.027c2.162,7.426,7.678,10.996,12.391,10.996c0.555,0,1.101-0.05,1.627-0.148    c3.948-0.741,6.457-4.086,6.1-8.133C209.041,56.822,203.307,40.922,202.655,39.13z M202.237,64.742    c-1.63,0.308-4.677-1.362-6.005-5.925c-1.252-4.302,0.201-8.354,1.929-11.292c1.917,5.738,4.194,13.167,4.495,16.579    C202.705,64.654,202.615,64.672,202.237,64.742z"/><path d="M209.446,26.673c-1.197-0.522-2.584-0.338-3.599,0.483c-1.016,0.819-1.491,2.136-1.233,3.416    c4.108,20.369,7.281,22.306,8.325,22.942c0.831,0.506,1.738,0.76,2.655,0.76c0.831,0,1.669-0.208,2.463-0.627    c4.127-2.175,6.28-10.054,6.468-13.592C224.686,37.026,222.2,32.245,209.446,26.673z M215.873,45.665    c-0.833-2.154-1.823-5.534-2.742-9.188c2.228,1.373,3.912,2.684,4.383,3.502C217.355,41.812,216.616,44.08,215.873,45.665z"/><path d="M228.535,8.923c-1.068-0.346-2.236-0.158-3.142,0.504c-0.789,0.576-7.707,5.823-7.613,12.466    c0.033,2.343,0.968,5.751,5.234,8.687c1.997,1.375,3.65,1.86,4.99,1.86c1.306,0,2.314-0.462,3.05-1.011    c3.369-2.514,3.279-9.329-0.268-20.256C230.44,10.105,229.603,9.268,228.535,8.923z M224.78,21.801    c-0.014-0.826,0.359-1.743,0.918-2.638c0.449,2.062,0.742,3.945,0.82,5.311C224.802,23.143,224.786,22.146,224.78,21.801z"/></g></g><g id="Capa_1"/></svg>