<?xml version="1.0" ?><svg viewBox="0 0 64 64" xmlns="http://www.w3.org/2000/svg"><defs><style>.cls-1{fill:none;stroke:#000;stroke-linejoin:round;stroke-width:2px;}</style></defs><title/><g data-name="Layer 25" id="Layer_25"><circle class="cls-1" cx="10" cy="56" r="6"/><circle class="cls-1" cx="10" cy="56" r="2"/><circle class="cls-1" cx="22" cy="56" r="6"/><circle class="cls-1" cx="22" cy="56" r="2"/><circle class="cls-1" cx="49" cy="56" r="6"/><circle class="cls-1" cx="49" cy="56" r="2"/><polyline class="cls-1" points="55 57 62 57 62 41 54 27 40 27"/><polyline class="cls-1" points="40 57 40 23 12 23 2 33 2 57 4 57"/><line class="cls-1" x1="28" x2="43" y1="57" y2="57"/><polyline class="cls-1" points="56 31 46 31 46 41 62 41"/><line class="cls-1" x1="45" x2="49" y1="45" y2="45"/><line class="cls-1" x1="40" x2="6" y1="29" y2="29"/><rect class="cls-1" height="13" rx="2" width="4" x="7" y="33"/><rect class="cls-1" height="13" rx="2" width="4" x="15" y="33"/><rect class="cls-1" height="13" rx="2" width="4" x="23" y="33"/><rect class="cls-1" height="13" rx="2" width="4" x="31" y="33"/><polyline class="cls-1" points="38 23 38 19 14 19 14 23"/><line class="cls-1" x1="18" x2="18" y1="19" y2="23"/><line class="cls-1" x1="22" x2="22" y1="19" y2="23"/><line class="cls-1" x1="26" x2="26" y1="19" y2="23"/><line class="cls-1" x1="30" x2="30" y1="19" y2="23"/><line class="cls-1" x1="34" x2="34" y1="19" y2="23"/><path class="cls-1" d="M40,9h0a6.826,6.826,0,0,1,4.828-2H46V8.172A6.826,6.826,0,0,1,44,13h0a6.826,6.826,0,0,1-4.828,2H38V13.828A6.826,6.826,0,0,1,40,9Z"/><path class="cls-1" d="M32,4h0a6.826,6.826,0,0,0-4.828-2H26V3.172A6.826,6.826,0,0,0,28,8h0a6.826,6.826,0,0,0,4.828,2H34V8.828A6.826,6.826,0,0,0,32,4Z"/></g></svg>