<?xml version="1.0" ?><svg id="Layer_1" style="enable-background:new 0 0 100 100;" version="1.1" viewBox="0 0 100 100" xml:space="preserve" xmlns="http://www.w3.org/2000/svg" xmlns:xlink="http://www.w3.org/1999/xlink"><style type="text/css">
	.st0{fill:none;}
	.st1{fill:none;stroke:#000000;stroke-width:0;stroke-linecap:round;stroke-linejoin:round;}
</style><title/><g><path class="st0" d="M37.8,83.6c-0.8-1.4-1.6-2.7-2.4-4c-0.3,0.2-0.5,0.4-0.7,0.6c-0.3,0.3-0.5,0.6-0.7,0.9c0,0,0,0,0,0   c-0.4,0.7-1.3,1-2,0.6c-0.7-0.4-1-1.3-0.6-2c0.6-1.1,1.4-2,2.4-2.6c0,0,0.1,0,0.1,0c-0.4-0.7-0.9-1.4-1.3-2.1   c-0.3,0.3-0.6,0.6-1,0.9c-0.6,0.6-1.3,1.1-2,1.6c-0.7,0.5-1.6,0.3-2.1-0.4c-0.5-0.7-0.3-1.6,0.4-2.1c0.7-0.5,1.3-1,2-1.6   c0.2-0.2,0.5-0.4,0.7-0.6c0.1-0.1,0.3-0.2,0.4-0.3c-0.4-0.5-0.7-1.1-1.1-1.6c-0.1,0.1-0.1,0.1-0.2,0.2c-0.3,0.2-0.6,0.5-1,0.7   c-0.7,0.6-1.4,1.2-2,1.9c-0.5,0.6-1.5,0.7-2.1,0.2c-0.6-0.5-0.7-1.5-0.2-2.1c0.7-0.9,1.6-1.7,2.5-2.4c0.3-0.3,0.7-0.5,1-0.8   c0.1,0,0.1-0.1,0.2-0.1c-0.4-0.5-0.8-1.1-1.1-1.6c-0.4,0.3-0.8,0.6-1.2,0.9c-0.9,0.7-1.6,1.4-2.4,2.2c-0.5,0.6-1.5,0.7-2.1,0.1   c-0.6-0.5-0.7-1.5-0.1-2.1c0.9-1,1.8-1.9,2.9-2.6c0.4-0.3,0.8-0.6,1.2-0.8c-0.6-0.8-1.1-1.5-1.7-2.2c-0.1,0.2-0.2,0.4-0.4,0.5   l-0.6,0.5l-3,2.6c0,0,0,0,0,0c-0.6,0.5-1.6,0.5-2.1-0.2c-0.5-0.6-0.5-1.6,0.2-2.1c1.1-0.9,2.1-1.9,3.2-2.8l0.3-0.3   c0.2-0.2,0.5-0.3,0.7-0.3c-0.4-0.5-0.9-1.1-1.3-1.6c-0.1,0.1-0.2,0.2-0.4,0.3c-0.2,0.1-0.4,0.2-0.6,0.3c-1.5,0.9-2.8,1.9-4,3.1   c0,0,0,0-0.1,0.1c-0.6,0.6-1.5,0.5-2.1-0.1c-0.6-0.6-0.5-1.5,0.1-2.1c1.3-1.3,2.8-2.4,4.4-3.4c0.3-0.2,0.5-0.3,0.8-0.5   c-0.6-0.7-1.2-1.4-1.8-2.2c-0.1,0.2-0.3,0.3-0.5,0.5c0,0,0,0,0,0c-1.4,0.8-2.7,1.9-3.7,3.1c0,0,0,0,0,0c-0.5,0.6-1.5,0.7-2.1,0.2   c-0.6-0.5-0.7-1.5-0.2-2.1c1.2-1.5,2.7-2.7,4.4-3.7c0.1,0,0.1-0.1,0.2-0.1c0,0,0.1,0,0.1,0c-0.7-0.7-1.3-1.5-2-2.2   c-0.5-0.6-1.1-1.2-1.6-1.7l-5.7,4.7c-0.7,0.6-1.1,1.5-1.1,2.4c0,0.7,0.3,1.4,0.7,2C15.8,69.6,27.1,81,39.4,91.4   c0.9,0.8,1.8,1.5,2.8,2c0.3,0.2,0.6,0.3,0.9,0.4c-1-2.2-2.1-4.4-3.3-6.6C39.2,86.1,38.5,84.8,37.8,83.6z"/><path class="st0" d="M94.4,50c-1.5-3.3-8.1-17.1-21.7-33.6c-2.1-2.6-5-5.9-8.6-9.7c-1.3-1.4-3.5-1.7-5.1-0.6   c-9.8,6.1-19.9,12.8-30.2,20.2c-5.7,4.1-11.1,8.2-16.3,12.2c-0.1,0.1-0.2,0.2-0.3,0.3c-1.5,1.5-1.6,3.9-0.1,5.5   c11,11.3,20.5,24,28.3,37.8c2.3,4,4.3,7.9,6.1,11.8C60.5,86,73.7,76.6,85.7,65.8c2.5-2.2,4.9-4.5,7.1-6.7c1.5-1.5,2.4-3.6,2.4-5.7   C95.2,52.2,95,51.1,94.4,50L94.4,50z M84.2,46c0.5,0.7,0.4,1.6-0.3,2.1l-7.1,5.3c-0.7,0.5-1.6,0.4-2.1-0.3   c-0.5-0.7-0.4-1.6,0.3-2.1l7.1-5.3C82.8,45.2,83.7,45.4,84.2,46z M61.3,13.5L61.3,13.5L61.3,13.5z M42.2,25.6   c0.6-0.6,1.5-0.5,2.1,0.1c3.9,4.2,7.3,8.8,10.2,13.8c-0.2-4-0.4-7.9-0.5-11.9c0-0.2,0-0.3,0.1-0.5c0.2-0.8,1-1.2,1.8-1   c2.1,0.6,4.3,1.1,6.5,1.3c-0.5-2.8-1-5.6-1.7-8.4L60,20.9c0.1,0.4,0,0.9-0.2,1.2c-0.1,0.2-0.3,0.4-0.6,0.5   c-0.5,0.3-1.2,0.2-1.7-0.1c-0.2-0.2-0.4-0.4-0.5-0.7c-0.1-0.2-0.1-0.4-0.1-0.6c0-0.2,0-0.4,0.1-0.6l1.6-4.7c0.1-0.3,0.3-0.7,0.5-1   c0.2-0.4,0.6-0.8,1-1c0.4-0.2,0.8-0.3,1.2-0.3h0.1c0.4,0,0.7,0.1,1.1,0.3c0.2,0.1,0.4,0.2,0.6,0.4l3.9,2.9c0.6,0.5,0.8,1.4,0.3,2   c-0.5,0.7-1.4,0.8-2.1,0.4l-1.7-1.3c0.9,3.5,1.6,7.1,2.1,10.7c0,0.1,0,0.2,0,0.3c-0.1,0.8-0.8,1.4-1.6,1.4   c-2.4-0.2-4.7-0.6-7.1-1.1c0.2,4.4,0.4,8.8,0.6,13.1c5.6-3.5,11-7.2,16.3-11.1c0,0,0,0,0,0c0.7-0.5,1.6-0.3,2.1,0.3   c0.5,0.7,0.3,1.6-0.3,2.1c-6.1,4.6-12.5,8.8-19,12.8c0,0-0.1,0.1-0.1,0.1c-0.7,0.3-1.6,0-2-0.7c-3.2-6.7-7.3-12.9-12.4-18.3   c0,0,0,0,0,0C41.5,27.1,41.6,26.2,42.2,25.6z M57.5,22.5L57.5,22.5L57.5,22.5L57.5,22.5z M18.7,43.8c-0.6-0.6-0.5-1.5,0.1-2.1   c5.2-4.7,10.9-8.9,17-12.4c0,0,0.1-0.1,0.1-0.1c0.7-0.4,1.6-0.1,2,0.7c0.4,0.7,0.1,1.6-0.7,2c-5.9,3.4-11.5,7.4-16.5,12   C20.2,44.4,19.3,44.4,18.7,43.8z M23.9,48.9c-0.6,0.5-1.6,0.5-2.1-0.2c-0.5-0.6-0.5-1.6,0.2-2.1c5.3-4.5,10.8-8.8,16.4-12.9   c0,0,0,0,0.1,0c0.7-0.5,1.6-0.3,2.1,0.4c0.5,0.7,0.3,1.6-0.4,2.1C34.6,40.1,29.2,44.4,23.9,48.9C23.9,48.9,23.9,48.9,23.9,48.9z    M25.4,52.8c-0.5-0.7-0.3-1.6,0.3-2.1c6-4.4,11.9-8.7,17.8-13.1c0.7-0.5,1.6-0.3,2.1,0.3c0.5,0.7,0.3,1.6-0.3,2.1   c-5.9,4.4-11.9,8.7-17.8,13.1C26.9,53.6,25.9,53.5,25.4,52.8z M28.8,57.7c-0.5-0.6-0.5-1.6,0.2-2.1c5.7-4.9,11.8-9.3,18.2-13.2   c0.7-0.4,1.6-0.2,2,0.5c0.4,0.7,0.2,1.6-0.5,2c-6.3,3.8-12.2,8.2-17.8,12.9C30.3,58.4,29.4,58.3,28.8,57.7z M33.1,61.7   c-0.5-0.6-0.5-1.6,0.1-2.1c5.4-4.8,11.3-9.2,17.5-13c0.7-0.4,1.6-0.2,2,0.5c0.4,0.7,0.2,1.6-0.5,2c-6.1,3.7-11.8,7.9-17.1,12.7   C34.6,62.3,33.7,62.3,33.1,61.7z M39.1,68.7c-0.5-0.7-0.3-1.6,0.4-2.1c13-9.1,25.9-18.3,38.6-27.7c0.6-0.4,1.5-0.3,2,0.3   c0.5,0.6,0.4,1.6-0.2,2.1C67.1,50.7,54.2,60,41.2,69C40.5,69.5,39.6,69.3,39.1,68.7z M71,57.7c-3.1,1.6-5.9,3.5-8.6,5.7   c0,0,0,0-0.1,0.1c-0.6,0.5-1.6,0.4-2.1-0.2s-0.4-1.6,0.2-2.1c2.8-2.3,5.9-4.4,9.1-6.1c0,0,0,0,0,0c0.7-0.4,1.6-0.1,2,0.6   C72.1,56.4,71.8,57.3,71,57.7z M44.1,75.6c-0.5-0.6-0.4-1.6,0.2-2.1c3.7-2.7,7.5-5.2,11.3-7.7c0,0,0,0,0,0c0.7-0.4,1.6-0.2,2,0.5   c0.4,0.7,0.2,1.6-0.5,2c-3.8,2.5-7.5,5-11.2,7.6C45.5,76.4,44.6,76.2,44.1,75.6z M46.2,80.6c-0.5-0.6-0.4-1.6,0.3-2.1   c3.9-3.1,8.1-5.8,12.5-8.1c0.7-0.4,1.6-0.1,2,0.6c0.4,0.7,0.1,1.6-0.6,2c-4.3,2.2-8.3,4.8-12.1,7.8C47.6,81.3,46.7,81.2,46.2,80.6z    M62.2,78.2c-4.2,2.3-8.2,5-11.8,8c0,0,0,0,0,0c-0.6,0.5-1.6,0.4-2.1-0.2c-0.5-0.6-0.4-1.6,0.2-2.1c3.8-3.2,7.9-6,12.3-8.4   c0,0,0,0,0,0c0.7-0.4,1.6-0.1,2,0.6C63.2,76.9,62.9,77.8,62.2,78.2z M63.1,68.5c-0.6-0.6-0.6-1.5,0-2.1c2.8-2.7,6-5,9.5-6.6   c0.7-0.3,1.6,0,2,0.7c0.4,0.7,0.1,1.6-0.7,2c-3.2,1.5-6.2,3.6-8.7,6.1C64.6,69.1,63.6,69.1,63.1,68.5z M76.5,66.9   c-3,1.9-5.8,4.2-8.4,6.6c0,0,0,0-0.1,0.1c-0.6,0.6-1.5,0.5-2.1-0.1c-0.6-0.6-0.5-1.5,0.1-2.1c2.7-2.6,5.7-4.9,8.8-7h0   c0.7-0.4,1.6-0.3,2.1,0.4C77.4,65.5,77.2,66.4,76.5,66.9z M79.2,58.3c-0.6,0.6-1.5,0.5-2.1-0.1c0,0,0,0,0,0   c-0.6-0.6-0.5-1.5,0.1-2.1c2.5-2.3,5.2-4.4,8.1-6.2c0.7-0.4,1.6-0.2,2,0.5c0.4,0.7,0.2,1.6-0.5,2C84.1,54.2,81.5,56.1,79.2,58.3   C79.2,58.3,79.2,58.3,79.2,58.3z M89.5,56.9c-2.7,1.8-5.3,3.7-7.8,5.9c0,0,0,0,0,0c-0.6,0.5-1.6,0.5-2.1-0.2c0,0,0,0,0,0   c-0.5-0.6-0.5-1.6,0.2-2.1c2.6-2.2,5.3-4.2,8.1-6.1c0.7-0.4,1.6-0.3,2.1,0.4C90.3,55.5,90.1,56.5,89.5,56.9z"/><path d="M97.2,48.8L97.2,48.8c-1.6-3.5-8.3-17.5-22.2-34.3c-2.2-2.6-5.1-6-8.7-9.8c-2.3-2.4-6-2.9-8.9-1.1   c-9.8,6.1-20,12.9-30.4,20.4c-5.7,4.1-11.2,8.2-16.4,12.3c-3,2.3-3.5,6.6-1.2,9.6c0,0,0,0,0,0L4,50.5c-2.6,2.2-2.9,6-0.8,8.6   c10.4,12.5,21.8,24.1,34.2,34.6c1,0.9,2.1,1.7,3.3,2.4c1.3,0.8,2.7,1.2,4.1,1.2c0,0,0.1,0,0.1,0c0.1,0.1,0.2,0.1,0.3,0.2   c0.4,0.1,0.8,0.1,1.2-0.1c14.8-8.2,28.6-18,41.1-29.3c2.5-2.3,4.9-4.5,7.2-6.8c2.1-2.1,3.3-4.9,3.3-7.9   C98.2,51.8,97.8,50.2,97.2,48.8z M42.2,93.5c-1-0.6-1.9-1.3-2.8-2C27.1,81,15.8,69.6,5.5,57.2c-0.5-0.6-0.7-1.3-0.7-2   c0-0.9,0.4-1.8,1.1-2.4l5.7-4.7c0.5,0.6,1.1,1.2,1.6,1.7c0.7,0.7,1.3,1.4,2,2.2c0,0-0.1,0-0.1,0c-0.1,0-0.1,0.1-0.2,0.1   c-1.7,1-3.1,2.2-4.4,3.7c-0.5,0.6-0.4,1.6,0.2,2.1c0.6,0.5,1.6,0.4,2.1-0.2c0,0,0,0,0,0c1-1.3,2.3-2.3,3.7-3.1c0,0,0,0,0,0   c0.2-0.1,0.4-0.3,0.5-0.5c0.6,0.7,1.2,1.4,1.8,2.2c-0.3,0.1-0.5,0.3-0.8,0.5c-1.6,1-3.1,2.1-4.4,3.4c-0.6,0.6-0.6,1.5-0.1,2.1   c0.6,0.6,1.5,0.6,2.1,0.1c0,0,0,0,0.1-0.1c1.2-1.2,2.6-2.2,4-3.1c0.2-0.1,0.4-0.2,0.6-0.3c0.1-0.1,0.3-0.2,0.4-0.3   c0.4,0.5,0.9,1.1,1.3,1.6c-0.3,0-0.5,0.2-0.7,0.3L21,60.8c-1.1,0.9-2.1,1.9-3.2,2.8c-0.6,0.5-0.7,1.5-0.2,2.1   c0.5,0.6,1.5,0.7,2.1,0.2c0,0,0,0,0,0l3-2.6l0.6-0.5c0.2-0.1,0.3-0.3,0.4-0.5c0.6,0.7,1.1,1.5,1.7,2.2c-0.4,0.3-0.8,0.5-1.2,0.8   c-1,0.8-2,1.7-2.9,2.6c-0.5,0.6-0.5,1.6,0.1,2.1c0.6,0.5,1.5,0.5,2.1-0.1c0.7-0.8,1.5-1.5,2.4-2.2c0.4-0.3,0.8-0.6,1.2-0.9   c0.4,0.5,0.8,1.1,1.1,1.6c-0.1,0-0.1,0.1-0.2,0.1c-0.3,0.2-0.7,0.5-1,0.8c-0.9,0.7-1.7,1.5-2.5,2.4c-0.5,0.6-0.4,1.6,0.2,2.1   c0.6,0.5,1.6,0.4,2.1-0.2c0.6-0.7,1.2-1.3,2-1.9c0.3-0.3,0.6-0.5,1-0.7c0.1,0,0.1-0.1,0.2-0.2c0.4,0.5,0.7,1.1,1.1,1.6   c-0.1,0.1-0.3,0.1-0.4,0.3c-0.2,0.2-0.5,0.4-0.7,0.6c-0.6,0.6-1.3,1.1-2,1.6c-0.7,0.5-0.8,1.4-0.4,2.1c0.5,0.7,1.4,0.8,2.1,0.4   c0.7-0.5,1.4-1,2-1.6c0.3-0.3,0.7-0.6,1-0.9c0.4,0.7,0.9,1.4,1.3,2.1c0,0-0.1,0-0.1,0c-1,0.7-1.8,1.6-2.4,2.6   c-0.4,0.7-0.1,1.6,0.6,2c0.7,0.4,1.6,0.1,2-0.6c0,0,0,0,0,0c0.2-0.3,0.4-0.7,0.7-0.9c0.2-0.2,0.4-0.4,0.7-0.6   c0.8,1.3,1.6,2.7,2.4,4c0.7,1.3,1.4,2.5,2,3.7c1.2,2.2,2.3,4.4,3.3,6.6C42.8,93.8,42.5,93.6,42.2,93.5z M92.8,59.1   c-2.3,2.2-4.6,4.5-7.1,6.7C73.7,76.6,60.5,86,46.4,93.9c-1.8-3.8-3.8-7.8-6.1-11.8c-7.8-13.8-17.3-26.5-28.3-37.8   c-1.5-1.5-1.5-4,0.1-5.5c0.1-0.1,0.2-0.2,0.3-0.3c5.2-4.1,10.6-8.1,16.3-12.2C39.1,18.9,49.2,12.2,59,6.1c1.6-1,3.8-0.8,5.1,0.6   c3.6,3.8,6.5,7.1,8.6,9.7C86.4,32.9,92.9,46.7,94.4,50l0,0.1c0.5,1,0.7,2.2,0.7,3.3C95.2,55.5,94.3,57.6,92.8,59.1z"/><path d="M38,29.8c-0.4-0.7-1.3-1-2-0.7c0,0-0.1,0.1-0.1,0.1c-6.1,3.5-11.8,7.7-17,12.4c-0.6,0.6-0.6,1.5-0.1,2.1   c0.6,0.6,1.5,0.6,2.1,0.1c5-4.6,10.6-8.6,16.5-12C38.1,31.5,38.4,30.6,38,29.8z"/><path d="M40.6,34.1c-0.5-0.7-1.4-0.9-2.1-0.4c0,0,0,0-0.1,0c-5.7,4.1-11.1,8.4-16.4,12.9c-0.6,0.5-0.7,1.5-0.2,2.1   c0.5,0.6,1.5,0.7,2.1,0.2c0,0,0,0,0,0c5.2-4.5,10.6-8.7,16.2-12.7C40.9,35.7,41,34.7,40.6,34.1z"/><path d="M45.7,38c-0.5-0.7-1.4-0.8-2.1-0.3c-5.9,4.4-11.9,8.7-17.8,13.1c-0.7,0.5-0.8,1.4-0.3,2.1c0.5,0.7,1.4,0.8,2.1,0.3   c5.9-4.4,11.9-8.7,17.8-13.1C46,39.6,46.2,38.7,45.7,38z"/><path d="M49.2,42.8c-0.4-0.7-1.3-0.9-2-0.5c-6.4,3.9-12.5,8.3-18.2,13.2c-0.6,0.5-0.7,1.5-0.2,2.1c0.5,0.6,1.5,0.7,2.1,0.2   c5.6-4.8,11.5-9.1,17.8-12.9C49.4,44.4,49.6,43.5,49.2,42.8z"/><path d="M52.8,47.1c-0.4-0.7-1.3-0.9-2-0.5c-6.2,3.8-12.1,8.1-17.5,13c-0.6,0.5-0.7,1.5-0.1,2.1c0.5,0.6,1.5,0.7,2.1,0.1   c5.3-4.7,11-9,17.1-12.7C53,48.7,53.2,47.8,52.8,47.1z"/><path d="M80.1,39.2c-0.5-0.6-1.4-0.7-2-0.3c-12.7,9.4-25.6,18.7-38.6,27.7c-0.7,0.5-0.8,1.4-0.4,2.1c0.5,0.7,1.4,0.8,2.1,0.4   c13-9.1,25.9-18.3,38.6-27.8C80.5,40.7,80.6,39.8,80.1,39.2z"/><path d="M57.3,68.3c0.7-0.4,0.9-1.4,0.5-2c-0.4-0.7-1.4-0.9-2-0.5c0,0,0,0,0,0c-3.8,2.5-7.6,5.1-11.3,7.7c-0.6,0.5-0.8,1.4-0.2,2.1   c0.5,0.6,1.3,0.7,2,0.3C49.8,73.3,53.5,70.8,57.3,68.3z"/><path d="M60.3,73c0.7-0.4,1-1.3,0.6-2c-0.4-0.7-1.3-1-2-0.6c-4.4,2.3-8.6,5-12.5,8.1c-0.6,0.5-0.8,1.4-0.3,2.1   c0.5,0.6,1.4,0.8,2.1,0.3C52,77.9,56.1,75.3,60.3,73z"/><path d="M60.8,75.5C60.8,75.5,60.8,75.5,60.8,75.5c-4.4,2.4-8.5,5.2-12.4,8.4c-0.6,0.5-0.7,1.4-0.2,2.1c0.5,0.6,1.4,0.7,2.1,0.2   c0,0,0,0,0,0c3.7-3,7.6-5.7,11.8-8c0.7-0.4,1-1.3,0.6-2C62.4,75.4,61.5,75.1,60.8,75.5z"/><path d="M69.7,55C69.7,55,69.7,55,69.7,55c-3.2,1.7-6.3,3.7-9.1,6.1c-0.6,0.5-0.8,1.4-0.2,2.1s1.4,0.8,2.1,0.2c0,0,0,0,0.1-0.1   c2.6-2.2,5.5-4.1,8.6-5.7c0.7-0.4,1-1.3,0.6-2C71.3,54.9,70.4,54.6,69.7,55z"/><path d="M74.6,60.4c-0.4-0.7-1.2-1-2-0.7c-3.5,1.7-6.7,3.9-9.5,6.6c-0.6,0.6-0.6,1.5,0,2.1c0.6,0.6,1.5,0.6,2.1,0   c2.5-2.5,5.5-4.5,8.7-6.1C74.6,62.1,74.9,61.2,74.6,60.4z"/><path d="M74.9,64.4L74.9,64.4c-3.1,2-6.1,4.4-8.8,7c-0.6,0.6-0.7,1.5-0.1,2.1c0.6,0.6,1.5,0.7,2.1,0.1c0,0,0,0,0.1-0.1   c2.6-2.5,5.4-4.7,8.4-6.6c0.7-0.4,0.9-1.4,0.4-2.1C76.5,64.1,75.5,63.9,74.9,64.4z"/><path d="M74.8,53.1c0.5,0.7,1.4,0.8,2.1,0.3l7.1-5.3c0.7-0.5,0.8-1.4,0.3-2.1c-0.5-0.7-1.4-0.8-2.1-0.3l-7.1,5.3   C74.4,51.5,74.3,52.5,74.8,53.1z"/><path d="M87.3,50.4c-0.4-0.7-1.3-0.9-2-0.5c-2.9,1.8-5.6,3.9-8.1,6.2c-0.6,0.6-0.6,1.5-0.1,2.1c0,0,0,0,0,0   c0.6,0.6,1.5,0.6,2.1,0.1c0,0,0,0,0,0c2.4-2.2,5-4.2,7.7-5.9C87.6,52,87.8,51.1,87.3,50.4z"/><path d="M87.8,54.4c-2.8,1.9-5.5,3.9-8.1,6.1c-0.6,0.5-0.7,1.5-0.2,2.1c0,0,0,0,0,0c0.5,0.6,1.5,0.7,2.1,0.2c0,0,0,0,0,0   c2.5-2.1,5.1-4.1,7.8-5.9c0.7-0.4,0.9-1.4,0.4-2.1C89.4,54.2,88.5,54,87.8,54.4z"/><line class="st1" x1="61.3" x2="61.3" y1="13.5" y2="13.5"/><polygon points="57.5,22.5 57.5,22.5 57.5,22.5  "/><path d="M42.1,27.8c5.1,5.4,9.2,11.6,12.4,18.3c0.3,0.7,1.2,1.1,2,0.7c0,0,0.1,0,0.1-0.1c6.5-4,12.9-8.3,19-12.8   c0.7-0.5,0.8-1.4,0.3-2.1c-0.5-0.7-1.4-0.8-2.1-0.3c0,0,0,0,0,0c-5.3,3.9-10.7,7.6-16.3,11.1c-0.2-4.4-0.4-8.8-0.6-13.1   c2.3,0.6,4.7,0.9,7.1,1.1c0.8,0.1,1.5-0.5,1.6-1.4c0-0.1,0-0.2,0-0.3c-0.5-3.6-1.3-7.2-2.1-10.7l1.7,1.3c0.7,0.5,1.6,0.3,2.1-0.4   c0.5-0.7,0.3-1.6-0.3-2L63,14.2c-0.2-0.1-0.4-0.3-0.6-0.4c-0.3-0.2-0.7-0.3-1.1-0.3h-0.1c-0.4,0-0.8,0.1-1.2,0.3   c-0.4,0.3-0.8,0.6-1,1c-0.2,0.3-0.3,0.6-0.5,1l-1.6,4.7c-0.1,0.2-0.1,0.4-0.1,0.6c0,0.2,0,0.4,0.1,0.6c0.1,0.3,0.3,0.5,0.5,0.7   c0.5,0.4,1.1,0.4,1.7,0.1c0.2-0.1,0.4-0.3,0.6-0.5c0.2-0.4,0.3-0.8,0.2-1.2l0.6-1.9c0.7,2.8,1.3,5.6,1.7,8.4   c-2.2-0.3-4.4-0.7-6.5-1.3c-0.8-0.2-1.6,0.2-1.8,1c0,0.2-0.1,0.3-0.1,0.5c0.2,4,0.3,7.9,0.5,11.9c-2.8-5-6.3-9.6-10.2-13.8   c-0.6-0.6-1.5-0.6-2.1-0.1C41.6,26.2,41.5,27.1,42.1,27.8C42.1,27.7,42.1,27.7,42.1,27.8z"/></g></svg>