<?xml version="1.0" ?><svg viewBox="0 0 64 64" xmlns="http://www.w3.org/2000/svg"><defs><style>.cls-1{fill:#669e4f;}.cls-2{fill:#7fcdee;}.cls-3{fill:#b2e1f5;}.cls-4{fill:#4d773b;}.cls-5{fill:#758190;}.cls-6{fill:#acb3bc;}.cls-7{fill:#fff;}.cls-8{fill:#96cc7f;}.cls-9{fill:none;stroke:#000;stroke-linejoin:round;stroke-width:2px;}</style></defs><title/><g data-name="Layer 25" id="Layer_25"><polygon class="cls-1" points="40 57 62 57 62 41 54 27 40 27 40 57"/><polygon class="cls-2" points="46 31 46 41 62 41 56.286 31 46 31"/><path class="cls-3" d="M46,31v6.8A14.5,14.5,0,0,0,56.4,31.2l-.111-.2Z"/><rect class="cls-4" height="4" width="24" x="14" y="19"/><polygon class="cls-4" points="40 57 40 23 12 23 2 33 2 57 40 57"/><path class="cls-1" d="M12,23,2,33V45.662A30.3,30.3,0,0,0,6.5,46c14.305,0,26.146-9.986,28.187-23Z"/><polygon class="cls-5" points="12 23 6 29 40 29 40 23 12 23"/><path class="cls-6" d="M34.687,23H12L6,29H32.975A25.712,25.712,0,0,0,34.687,23Z"/><rect class="cls-5" height="13" rx="2" width="4" x="7" y="33"/><rect class="cls-5" height="13" rx="2" width="4" x="15" y="33"/><rect class="cls-5" height="13" rx="2" width="4" x="23" y="33"/><rect class="cls-5" height="13" rx="2" width="4" x="31" y="33"/><circle class="cls-5" cx="49" cy="56" r="6"/><circle class="cls-7" cx="49" cy="56" r="2"/><circle class="cls-5" cx="22" cy="56" r="6"/><circle class="cls-7" cx="22" cy="56" r="2"/><circle class="cls-5" cx="10" cy="56" r="6"/><circle class="cls-7" cx="10" cy="56" r="2"/><path class="cls-8" d="M40,9h0a6.826,6.826,0,0,1,4.828-2H46V8.172A6.826,6.826,0,0,1,44,13h0a6.826,6.826,0,0,1-4.828,2H38V13.828A6.826,6.826,0,0,1,40,9Z"/><path class="cls-8" d="M32,4h0a6.826,6.826,0,0,0-4.828-2H26V3.172A6.826,6.826,0,0,0,28,8h0a6.826,6.826,0,0,0,4.828,2H34V8.828A6.826,6.826,0,0,0,32,4Z"/><circle class="cls-9" cx="10" cy="56" r="6"/><circle class="cls-9" cx="10" cy="56" r="2"/><circle class="cls-9" cx="22" cy="56" r="6"/><circle class="cls-9" cx="22" cy="56" r="2"/><circle class="cls-9" cx="49" cy="56" r="6"/><circle class="cls-9" cx="49" cy="56" r="2"/><polyline class="cls-9" points="55 57 62 57 62 41 54 27 40 27"/><polyline class="cls-9" points="40 57 40 23 12 23 2 33 2 57 4 57"/><line class="cls-9" x1="28" x2="43" y1="57" y2="57"/><polyline class="cls-9" points="56 31 46 31 46 41 62 41"/><line class="cls-9" x1="45" x2="49" y1="45" y2="45"/><line class="cls-9" x1="40" x2="6" y1="29" y2="29"/><rect class="cls-9" height="13" rx="2" width="4" x="7" y="33"/><rect class="cls-9" height="13" rx="2" width="4" x="15" y="33"/><rect class="cls-9" height="13" rx="2" width="4" x="23" y="33"/><rect class="cls-9" height="13" rx="2" width="4" x="31" y="33"/><polyline class="cls-9" points="38 23 38 19 14 19 14 23"/><line class="cls-9" x1="18" x2="18" y1="19" y2="23"/><line class="cls-9" x1="22" x2="22" y1="19" y2="23"/><line class="cls-9" x1="26" x2="26" y1="19" y2="23"/><line class="cls-9" x1="30" x2="30" y1="19" y2="23"/><line class="cls-9" x1="34" x2="34" y1="19" y2="23"/><path class="cls-9" d="M40,9h0a6.826,6.826,0,0,1,4.828-2H46V8.172A6.826,6.826,0,0,1,44,13h0a6.826,6.826,0,0,1-4.828,2H38V13.828A6.826,6.826,0,0,1,40,9Z"/><path class="cls-9" d="M32,4h0a6.826,6.826,0,0,0-4.828-2H26V3.172A6.826,6.826,0,0,0,28,8h0a6.826,6.826,0,0,0,4.828,2H34V8.828A6.826,6.826,0,0,0,32,4Z"/></g></svg>